<svg width="800" height="800" viewBox="0 0 800 800" fill="none" xmlns="http://www.w3.org/2000/svg">
<path d="M400 787.2C387.04 787.31 374.303 783.829 363.2 777.143L224.457 696C172.517 666.952 129.165 624.707 98.7832 573.536C68.4013 522.364 52.0661 464.079 51.4286 404.571V182.857C51.4347 167.916 56.0162 153.336 64.5566 141.077C73.0971 128.818 85.187 119.468 99.2 114.286L374.857 13.0285C391.092 7.08554 408.908 7.08554 425.143 13.0285L700.8 114.286C714.813 119.468 726.903 128.818 735.443 141.077C743.984 153.336 748.565 167.916 748.571 182.857V404.571C747.934 464.079 731.599 522.364 701.217 573.536C670.835 624.707 627.483 666.952 575.543 696L436.8 777.143C425.698 783.829 412.96 787.31 400 787.2ZM400 65.8285C398.186 65.4984 396.328 65.4984 394.514 65.8285L118.857 167.543C115.752 168.693 113.088 170.791 111.242 173.539C109.396 176.288 108.461 179.548 108.571 182.857V404.571C109.234 454.086 122.964 502.548 148.37 545.053C173.777 587.558 209.959 622.598 253.257 646.629L392 728C394.453 729.34 397.204 730.043 400 730.043C402.796 730.043 405.547 729.34 408 728L546.743 646.629C590.041 622.598 626.223 587.558 651.63 545.053C677.037 502.548 690.766 454.086 691.429 404.571V182.857C691.443 179.625 690.464 176.467 688.624 173.809C686.785 171.152 684.173 169.124 681.143 168L405.486 66.7428C403.728 66.1058 401.869 65.7959 400 65.8285Z" fill="white"/>
<path d="M374.857 510.857C368.112 510.813 361.583 508.475 356.343 504.229L258.743 421.943C252.923 417.063 249.281 410.071 248.616 402.505C247.952 394.939 250.32 387.42 255.2 381.6C260.08 375.78 267.072 372.138 274.638 371.473C282.203 370.809 289.723 373.177 295.543 378.057L372.114 442.514L502.857 298.514C507.949 292.877 515.073 289.493 522.66 289.107C530.247 288.721 537.677 291.365 543.314 296.457C548.952 301.549 552.336 308.673 552.722 316.26C553.108 323.847 550.464 331.277 545.372 336.914L397.257 501.486C394.421 504.572 390.951 507.008 387.084 508.626C383.217 510.244 379.046 511.005 374.857 510.857Z" fill="white"/>
</svg>
