<?xml version="1.0" encoding="UTF-8" standalone="no"?>
<!DOCTYPE svg PUBLIC "-//W3C//DTD SVG 1.1//EN" "http://www.w3.org/Graphics/SVG/1.1/DTD/svg11.dtd">
<svg width="100%" height="100%" viewBox="0 0 800 800" version="1.1" xmlns="http://www.w3.org/2000/svg" xmlns:xlink="http://www.w3.org/1999/xlink" xml:space="preserve" xmlns:serif="http://www.serif.com/" style="fill-rule:evenodd;clip-rule:evenodd;stroke-linecap:round;stroke-linejoin:round;">
    <g id="Edit---Select_Multiple" serif:id="Edit / Select_Multiple">
        <path id="Vector" d="M100,300L100,646.667C100,665.337 100,674.663 103.633,681.793C106.829,688.067 111.925,693.173 118.197,696.37C125.32,700 134.65,700 153.282,700L500.003,700M566.667,266.667L433.333,400L366.667,333.333M233.333,460.007L233.333,206.673C233.333,169.336 233.333,150.654 240.6,136.393C246.991,123.849 257.182,113.658 269.727,107.266C283.987,100 302.67,100 340.007,100L593.34,100C630.677,100 649.337,100 663.597,107.266C676.14,113.658 686.35,123.849 692.74,136.393C700.007,150.654 700.007,169.323 700.007,206.659L700.007,459.993C700.007,497.33 700.007,516 692.74,530.26C686.35,542.803 676.14,553.017 663.597,559.407C649.35,566.667 630.717,566.667 593.453,566.667L339.897,566.667C302.633,566.667 283.973,566.667 269.727,559.407C257.182,553.017 246.991,542.807 240.6,530.263C233.333,516.003 233.333,497.343 233.333,460.007Z" style="fill:none;fill-rule:nonzero;stroke:white;stroke-width:66.67px;"/>
    </g>
</svg>
