<?xml version="1.0" encoding="UTF-8" standalone="no"?>
<!DOCTYPE svg PUBLIC "-//W3C//DTD SVG 1.1//EN" "http://www.w3.org/Graphics/SVG/1.1/DTD/svg11.dtd">
<svg width="100%" height="100%" viewBox="0 0 327 181" version="1.1" xmlns="http://www.w3.org/2000/svg" xmlns:xlink="http://www.w3.org/1999/xlink" xml:space="preserve" xmlns:serif="http://www.serif.com/" style="fill-rule:evenodd;clip-rule:evenodd;stroke-linejoin:round;stroke-miterlimit:2;">
    <g transform="matrix(1,0,0,1,-1590.57,-3622.33)">
        <g transform="matrix(1,0,0,1,0,2861.57)">
            <g transform="matrix(0.117693,0,0,0.117693,1448.35,725.199)">
                <g transform="matrix(1,0,0,1,3917.08,309.524)">
                    <path d="M0,919.511C-50.777,932.568 -79.269,905.786 -108.378,867.606C-231.464,706.169 -357.328,546.845 -482.501,387.003C-552.377,297.773 -622.778,208.953 -693.266,120.205C-701.363,110.012 -704.866,100.553 -699.379,87.995C-687.615,61.07 -676.215,33.975 -665.225,6.724C-658.691,-9.476 -652.325,-13.057 -640.083,2.799C-596.024,59.865 -551.288,116.408 -506.706,173.07C-369.176,347.863 -231.531,522.566 -94.077,697.42C-45.832,758.792 1.987,820.499 50.015,882.042C51.047,883.365 52.572,884.39 53.319,885.837C58.475,895.82 71.399,905.409 66.225,915.961C62.194,924.183 47.65,918.662 37.838,919.31C25.276,920.138 12.617,919.511 0,919.511" style="fill:rgb(251,203,12);fill-rule:nonzero;"/>
                </g>
                <g transform="matrix(1,0,0,1,3495.74,416.266)">
                    <path d="M0,812.871C-45.735,812.871 -86.804,812.815 -127.873,812.904C-140.662,812.932 -147.397,803.803 -154.057,795.335C-264.675,654.674 -375.135,513.89 -485.612,373.118C-546.701,295.277 -607.468,217.182 -669.066,139.747C-681.403,124.238 -685.655,109.889 -676.808,91.382C-666.671,70.175 -658.086,48.225 -648.859,26.584C-637.968,1.039 -632.519,-0.061 -615.722,21.074C-588.017,55.937 -560.754,91.151 -533.247,126.171C-437.8,247.69 -342.267,369.141 -246.885,490.71C-169.187,589.742 -91.613,688.872 -14.165,788.101C-9.627,793.915 -6.713,800.997 0,812.871" style="fill:rgb(251,203,12);fill-rule:nonzero;"/>
                </g>
                <g transform="matrix(1,0,0,1,3779.09,478.902)">
                    <path d="M0,747.891C-47.593,752.739 -90.157,749.701 -132.615,750.11C-145.61,750.236 -151.197,739.434 -157.734,731.143C-219.458,652.857 -280.953,574.389 -342.37,495.861C-436.983,374.888 -531.224,253.622 -626.371,133.071C-637.861,118.513 -640.328,105.992 -632.793,89.551C-622.645,67.41 -613.844,44.654 -604.377,22.2C-593.255,-4.179 -589.922,-4.848 -572.596,17.214C-527.473,74.67 -482.645,132.357 -437.625,189.893C-399.338,238.824 -360.847,287.595 -322.623,336.574C-241.389,440.665 -160.363,544.918 -79.047,648.946C-53.953,681.049 -28.198,712.636 0,747.891" style="fill:rgb(251,203,12);fill-rule:nonzero;"/>
                </g>
                <g transform="matrix(1,0,0,1,2878.03,605.308)">
                    <path d="M0,177.907C-24.977,184.297 -43.288,170.413 -58.417,147.009C-71.541,126.705 -85.472,106.282 -102.412,89.261C-120.333,71.254 -117.66,55.248 -108.011,35.313C-87.931,-6.173 -86.503,-6.39 -58.582,30.314C-29.739,68.229 0.275,105.252 29.25,143.069C36.071,151.972 49.537,161.117 44.417,172.393C39.701,182.78 24.627,176.391 14.194,177.836C10.904,178.291 7.498,177.907 0,177.907" style="fill:rgb(251,203,12);fill-rule:nonzero;"/>
                </g>
                <g transform="matrix(0.991232,-0.132136,-0.132136,-0.991232,2754.55,784.948)">
                    <path d="M-2.974,0.218C-10.599,6.682 -31.005,-3.843 -27.401,15.332C-24.826,29.033 -22.25,47.851 -2.974,51.619C2.595,52.708 26.337,11.568 23.567,5.477C17.521,-7.826 6.221,3.19 -2.974,0.218" style="fill:rgb(251,203,12);fill-rule:nonzero;"/>
                </g>
                <g transform="matrix(1,0,0,1,2685.34,585.981)">
                    <path d="M0,-60.687C-15.443,-21.612 -30.214,15.759 -43.114,48.399C-98.145,28.202 -149.982,2.892 -204.745,-9.771C-386.805,-51.872 -577.132,24.011 -684.822,175.988C-689.856,183.092 -699.776,190.842 -707.676,191.123C-749.683,192.619 -791.771,191.827 -834.332,191.827C-712.199,-96.646 -315.293,-253.306 0,-60.687" style="fill:rgb(226,38,39);fill-rule:nonzero;"/>
                </g>
                <g transform="matrix(1,0,0,1,2776.93,1324.56)">
                    <path d="M0,509.704L-85.224,509.704L-85.224,424.365L-287.831,424.365L-287.831,0L-194.314,0L-194.314,320.608L-122.529,320.608L-122.529,0.132L-26.421,0.132L-26.421,320.697C-16.227,322.204 -8.933,323.281 0,324.601L0,509.704Z" style="fill:rgb(226,38,39);fill-rule:nonzero;"/>
                </g>
                <g transform="matrix(1,0,0,1,3189.97,1325.05)">
                    <path d="M0,422.662L-95.041,422.662L-95.041,0L-1.085,0L-1.085,154.36L69.529,154.36L69.529,0.343L164.939,0.343L164.939,422.243L70.751,422.243L70.751,257.888L0,257.888L0,422.662Z" style="fill:rgb(226,38,39);fill-rule:nonzero;"/>
                </g>
                <g transform="matrix(1,0,0,1,1795.81,819.424)">
                    <path d="M0,382.21L-59.442,382.21L-59.442,0.049L43.611,0.049C56.205,65.004 68.882,130.393 82.938,202.89C96.589,130.835 108.898,65.869 121.377,0L224.55,0L224.55,381.725L151.304,381.725L151.304,124.056C149.587,123.919 147.869,123.782 146.152,123.646C131.084,209.375 116.016,295.104 100.765,381.873L51.359,381.873C35.29,293.595 19.293,205.717 3.296,117.839C2.197,118.001 1.099,118.164 0,118.326L0,382.21Z" style="fill:white;fill-rule:nonzero;"/>
                </g>
                <g transform="matrix(1,0,0,1,1703.35,179.341)">
                    <path d="M0,598.74C141.224,197.303 638.336,-4.156 1031.79,219.527C1023.46,240.544 1014.96,261.971 1005.84,284.967C928.211,241.445 847.579,213.48 761.404,203.38C479.08,170.291 218.403,309.85 91.252,564.398C77.074,592.782 61.436,602.896 32.34,598.952C22.468,597.614 12.262,598.74 0,598.74" style="fill:rgb(226,38,39);fill-rule:nonzero;"/>
                </g>
                <g transform="matrix(1,0,0,1,3051.12,1649.6)">
                    <path d="M0,-228.063L-134.427,-228.063L-134.427,-164.022L-24.089,-164.022L-24.089,-73.323L-134.601,-73.323L-134.601,-2.656L-0.024,-2.656L-0.024,96.955L-231.678,96.955L-231.678,-325.018L0,-325.018L0,-228.063Z" style="fill:rgb(226,38,39);fill-rule:nonzero;"/>
                </g>
                <g transform="matrix(1,0,0,1,3738.02,1569.87)">
                    <path d="M0,-70.743C24.106,-71.653 48.325,-63.031 61.861,-87.06C72.349,-105.68 72.962,-126.827 58.21,-143.532C42.018,-161.869 20.356,-153.629 0,-152.362L0,-70.743ZM-95.875,-245.418C-40.145,-245.418 13.694,-247.332 67.317,-244.744C102.918,-243.026 131.062,-223.791 147.212,-190.904C173.493,-137.385 170.922,-83.192 145.673,-30.492C130.12,1.973 102.888,20.716 65.937,23.02C45.01,24.325 24.062,25.31 0.372,26.587L0.372,176.589L-95.875,176.589L-95.875,-245.418Z" style="fill:rgb(226,38,39);fill-rule:nonzero;"/>
                </g>
                <g transform="matrix(1,0,0,1,2284.19,819.522)">
                    <path d="M0,382.293L-76.661,382.293L-76.661,194.291L-79.67,193.169C-100.4,254.402 -121.13,315.636 -143.214,380.87L-214.469,380.87L-214.469,0L-136.693,0C-136.693,61.237 -136.693,122.71 -136.692,184.184C-135.257,184.34 -133.821,184.497 -132.385,184.653C-112.217,124.125 -92.05,63.596 -70.901,0.125L0,0.125L0,382.293Z" style="fill:white;fill-rule:nonzero;"/>
                </g>
                <g transform="matrix(1,0,0,1,2334.2,1200.94)">
                    <path d="M0,-382.678L77.24,-382.678L77.24,-241.949L136.588,-241.949L136.588,-380.948L215.4,-380.948L215.4,0L138.022,0L138.022,-148.614L78.888,-148.614L78.888,-0.057L0,-0.057L0,-382.678Z" style="fill:white;fill-rule:nonzero;"/>
                </g>
                <g transform="matrix(1,0,0,1,2302.83,1350.21)">
                    <path d="M0,143.912C-15.173,182.435 -29.594,219.05 -43.91,255.396C-212.993,233.367 -413.661,75.579 -472.002,-111.119C-430.35,-111.119 -389.431,-111.484 -348.536,-110.645C-343.56,-110.543 -336.811,-105.035 -334.091,-100.221C-261.559,28.187 -153.352,107.988 -9.341,139.46C-7.01,139.969 -4.908,141.532 0,143.912" style="fill:rgb(226,38,39);fill-rule:nonzero;"/>
                </g>
                <g transform="matrix(1,0,0,1,1208.67,911.358)">
                    <path d="M0,207.288C28.401,201.94 38.245,181.28 39.736,157.758C44.362,84.736 47.085,11.592 50.416,-61.511C50.834,-70.687 50.473,-79.898 50.473,-91.098L232.771,-91.098L232.771,289.54L155.397,289.54L155.397,-1.69L116.471,-1.69C112.859,54.145 111.779,108.856 104.928,162.834C100.665,196.421 90.298,229.945 77.735,261.534C68.242,285.402 46.532,298.386 18.695,296.124C5.79,295.076 -0.842,289.639 -0.241,275.36C0.678,253.51 0,231.593 0,207.288" style="fill:white;fill-rule:nonzero;"/>
                </g>
                <g transform="matrix(1,0,0,1,1600.33,978.063)">
                    <path d="M0,64.648C-6.5,28.753 -12.531,-4.555 -18.563,-37.863C-19.747,-37.702 -20.931,-37.541 -22.115,-37.38C-27.913,-3.922 -33.712,29.535 -39.798,64.648L0,64.648ZM-133.738,223.333C-106.97,94.955 -80.603,-31.493 -54.081,-158.685L29.303,-158.685C55.988,-31.9 82.566,94.374 109.577,222.703L29.325,222.703C24.875,199.803 20.285,176.191 15.279,150.435L-55.541,150.435C-60.121,173.659 -64.925,198.021 -69.917,223.333L-133.738,223.333Z" style="fill:white;fill-rule:nonzero;"/>
                </g>
                <g transform="matrix(1,0,0,1,2708.77,978.505)">
                    <path d="M0,63.82C-6.502,28.614 -12.681,-4.837 -18.859,-38.287C-20.094,-38.066 -21.328,-37.844 -22.563,-37.622C-28.266,-4.229 -33.97,29.164 -39.889,63.82L0,63.82ZM15.181,150.421C11.82,149.093 11.022,148.464 10.292,148.535C-12.11,150.722 -41.707,145.194 -54.893,157.392C-68.324,169.816 -65.606,199.695 -70.155,222.936L-133.716,222.936C-107.123,94.978 -80.743,-31.952 -54.315,-159.116L29.253,-159.116C55.994,-31.952 82.564,94.399 109.53,222.629L29.057,222.629C24.351,198.139 19.791,174.406 15.181,150.421" style="fill:white;fill-rule:nonzero;"/>
                </g>
                <g transform="matrix(1,0,0,1,3610.09,1746.86)">
                    <path d="M0,-422.081L0,-326.51L-63.085,-326.51L-63.085,0L-160.831,0L-160.831,-325.584L-224.634,-325.584L-224.634,-422.081L0,-422.081Z" style="fill:rgb(226,38,39);fill-rule:nonzero;"/>
                </g>
                <g transform="matrix(1,0,0,1,1689.33,1731.16)">
                    <path d="M0,-492.064C20.937,-492.064 41.772,-493.029 62.395,-491.363C67.341,-490.963 73.553,-482.574 75.853,-476.581C125.236,-347.909 205.638,-243.273 318.252,-163.817C376.475,-122.737 440.249,-92.675 508.645,-72.532C519.876,-69.224 531.11,-65.927 544.371,-62.028C535.697,-39.991 527.531,-19.243 519.577,0.965C324.366,-10.518 16.398,-302.182 0,-492.064" style="fill:rgb(226,38,39);fill-rule:nonzero;"/>
                </g>
                <g transform="matrix(-0.630022,-0.776578,-0.776578,0.630022,2228.41,466.525)">
                    <path d="M-437.026,-129.248C-438.792,-127.814 -439.608,-127.407 -440.059,-126.75C-469.281,-84.113 -469.297,-84.096 -437.026,-44.311C-346.258,67.592 -255.474,179.482 -164.331,291.826C-126.676,151.096 -221.972,-74.456 -437.026,-129.248" style="fill:rgb(226,38,39);fill-rule:nonzero;"/>
                </g>
                <g transform="matrix(1,0,0,1,2813.24,1201.34)">
                    <path d="M0,-382.144L184.048,-382.144L184.048,-293.904L133.078,-293.904L133.078,0L53.225,0L53.225,-292.418L0,-292.418L0,-382.144Z" style="fill:white;fill-rule:nonzero;"/>
                </g>
                <g transform="matrix(1,0,0,1,2068.97,1410.45)">
                    <path d="M0,-170.225L333.951,-170.225C312.984,-116.917 292.675,-64.731 271.63,-12.845C269.979,-8.775 263.315,-4.436 258.763,-4.187C182.154,0 34.478,-94.549 0,-170.225" style="fill:rgb(226,38,39);fill-rule:nonzero;"/>
                </g>
            </g>
        </g>
    </g>
</svg>
